<svg width="45" height="46" viewBox="0 0 45 46" fill="none" xmlns="http://www.w3.org/2000/svg">
<path d="M24.9132 4.46895C24.4581 3.08384 23.5102 1.85709 21.7425 1.29651C20.3269 0.849045 18.6121 0.881725 17.0381 1.38449C14.9135 2.06071 13.342 3.48102 12.726 5.28092C12.6631 5.46694 12.6053 5.67056 12.5575 5.88927C12.7989 5.8038 13.0352 5.71078 13.2716 5.61777C13.2992 5.6052 13.3294 5.59515 13.3571 5.58258C13.5557 5.50214 13.7543 5.42421 13.953 5.34879C14.3452 5.20048 14.74 5.06473 15.1549 4.97926C16.2637 4.7505 17.3952 4.7505 18.5141 4.6223C20.42 4.40359 22.3234 4.12205 24.2242 4.35835C24.4556 4.386 24.6869 4.42371 24.9157 4.46895H24.9132Z" fill="#1D1D1C" stroke="#1D1D1C" stroke-width="0.236268" stroke-miterlimit="10"/>
<path d="M38.8455 19.3383C38.8455 19.3383 34.1361 -6.22978 4.03635 8.69732C4.03635 8.69732 1.76335 9.45901 1.48425 14.0668C1.11967 20.1051 5.44441 35.9849 10.6894 42.0734C12.1478 43.7677 13.4628 44.4288 14.2875 44.7406C15.5849 45.2307 16.8069 45.2911 17.9459 45.2207C25.5193 44.7556 32.899 40.2534 32.899 40.2534C34.9205 39.0015 37.5581 37.1488 40.3591 34.4867C43.0194 31.9578 44.4425 28.3479 44.0402 24.6978C43.7435 21.998 42.4838 19.4716 38.8455 19.3383Z" fill="white" stroke="#1D1D1C" stroke-width="1.41761" stroke-miterlimit="10"/>
<path d="M42.9541 19.1222C42.8711 18.8632 42.72 18.4206 42.3705 18.2346C41.9305 18.0008 41.405 18.217 40.5702 18.5588C40.1855 18.7172 39.7128 18.9133 39.1395 19.318C38.3047 19.9062 37.6661 20.3613 37.651 20.8665C37.6208 21.9198 40.2936 23.7549 41.9959 22.6865C43.2204 21.9173 43.2581 20.0722 42.9362 19.0641L42.9541 19.1222Z" fill="#1D1D1C" stroke="#1D1D1C" stroke-width="1.89014" stroke-miterlimit="10"/>
<path d="M13.3421 2.58864C11.2829 1.4901 9.20094 2.09091 8.08707 2.41267C5.56514 3.14168 1.98969 5.35637 1.71311 8.82796C1.55219 10.8541 2.60823 12.4278 2.92755 12.8903C3.64415 13.9285 4.52167 14.5846 5.25336 14.9919C5.98505 15.3991 6.84999 15.5524 7.6898 15.4343C9.26632 15.2131 11.5242 14.6047 13.5508 12.8978C14.6546 11.9677 16.196 10.6631 16.46 8.50116C16.7416 6.17587 15.4391 3.70478 13.3421 2.58613V2.58864Z" fill="#1D1D1C" stroke="#1D1D1C" stroke-width="0.236268" stroke-miterlimit="10"/>
<path d="M36.273 24.4086C36.5597 19.7781 32.9691 14.8786 28.9059 14.8585C24.5107 14.8359 21.9938 20.5297 21.7298 21.1255C21.0987 22.5533 19.5373 26.0878 21.4533 29.2552C23.1127 31.9953 26.5499 33.1014 29.3937 32.6112C33.4393 31.9123 36.0467 28.0209 36.273 24.4111V24.4086Z" fill="#1D1D1C" stroke="#1D1D1C" stroke-width="0.236268" stroke-miterlimit="10"/>
<path d="M43.3184 30.2533C43.0946 30.1125 41.9732 33.0838 39.4789 33.6897C37.7767 34.1019 36.0342 33.2648 34.6211 32.2392C34.249 31.9677 33.721 32.1562 33.6103 32.6037V32.6188C33.5425 32.8727 33.638 33.1391 33.8492 33.295C34.3571 33.6695 35.0611 34.1095 35.9563 34.4589C36.9293 34.841 38.3801 35.4091 39.8058 35.017C42.544 34.2628 43.5673 30.4116 43.3184 30.2558V30.2533Z" fill="#1D1D1C"/>
<path d="M31.1088 23.3225C32.0531 23.3225 32.8186 22.5572 32.8186 21.6131C32.8186 20.669 32.0531 19.9037 31.1088 19.9037C30.1645 19.9037 29.399 20.669 29.399 21.6131C29.399 22.5572 30.1645 23.3225 31.1088 23.3225Z" fill="white"/>
<path d="M41.9806 18.3077C41.4048 18.167 40.7913 18.353 40.3789 18.7904C40.653 18.715 41.1936 18.6094 41.8549 18.7451C42.4709 18.8708 42.9008 19.1499 43.1271 19.3183C43.0995 19.2479 42.7927 18.5063 41.9831 18.3077H41.9806Z" fill="white"/>
<path d="M6.66615 4.11461C6.10544 4.41627 5.27821 4.87127 4.55909 5.80642C4.20205 6.27148 3.26419 7.63648 3.36225 9.54448C3.42259 10.7159 3.84752 11.5932 4.11405 12.0508C3.89278 10.7335 4.08639 9.70788 4.23977 9.13724C4.6295 7.68676 5.41901 6.74408 6.03252 6.01004C6.79941 5.09249 7.51601 4.55202 7.69956 4.41627C8.56199 3.78027 9.3842 3.40571 9.98011 3.18701C9.25596 3.22723 8.0038 3.39315 6.66615 4.11713V4.11461Z" fill="white"/>
</svg>
